<svg xmlns="http://www.w3.org/2000/svg" viewBox="0 0 289.61 63.65"><title>riverCrossingLogo</title><g id="Layer_2" data-name="Layer 2"><g id="Layer_1-2" data-name="Layer 1"><path d="M135.9.22V14.64h-4V.22Z"/><path d="M162.06.22,158.7,14.64h-5l-2-8.9-2,8.9h-5L141.41.22h4.32L147.32,10,149.54.22h4.38L156.16,10,157.74.22Z"/><path d="M172.89,12.24h-5.11l-.79,2.4h-4.21L168,.29h4.62l5.25,14.36h-4.24Zm-1-3-1.55-4.68-1.57,4.68Z"/><path d="M192.42,14.64h-4l-5.29-8v8h-4V.24h4l5.29,8.15V.24h4Z"/><path d="M205.49.22v3.2H201.6V14.64h-4V3.42h-3.85V.22Z"/><path d="M221.44.22v3.2h-3.89V14.64h-4V3.42h-3.85V.22Z"/><path d="M233.42.95a6.91,6.91,0,0,1,2.65,2.64,7.53,7.53,0,0,1,1,3.81,7.47,7.47,0,0,1-1,3.81,7,7,0,0,1-2.66,2.64,7.71,7.71,0,0,1-7.4,0,7,7,0,0,1-2.67-2.64,7.46,7.46,0,0,1-1-3.81,7.46,7.46,0,0,1,1-3.81A7,7,0,0,1,226,.95a7.75,7.75,0,0,1,7.42,0ZM227.3,4.69a3.92,3.92,0,0,0-.88,2.7,3.9,3.9,0,0,0,.88,2.67,3.37,3.37,0,0,0,4.79,0A3.9,3.9,0,0,0,233,7.39a4,4,0,0,0-.87-2.7,3,3,0,0,0-2.39-1A3,3,0,0,0,227.3,4.69Z"/><path d="M141.85,25.2a6.08,6.08,0,0,1,2.37,1.93,7.21,7.21,0,0,1,1.24,2.9h-4.21a2.8,2.8,0,0,0-1.08-1.33,3,3,0,0,0-1.69-.48,2.64,2.64,0,0,0-2.14,1,4,4,0,0,0-.81,2.64,4.05,4.05,0,0,0,.81,2.65,2.63,2.63,0,0,0,2.14,1,3,3,0,0,0,1.69-.49,2.86,2.86,0,0,0,1.08-1.34h4.21a6.65,6.65,0,0,1-2.31,4,7,7,0,0,1-4.61,1.5,7.32,7.32,0,0,1-3.74-.93,6.27,6.27,0,0,1-2.46-2.6,8.81,8.81,0,0,1,0-7.62,6.27,6.27,0,0,1,2.46-2.6,7.32,7.32,0,0,1,3.74-.93A7.71,7.71,0,0,1,141.85,25.2Z"/><path d="M157.92,25.38A6.91,6.91,0,0,1,160.56,28a7.94,7.94,0,0,1,0,7.62,7,7,0,0,1-2.66,2.64,7.71,7.71,0,0,1-7.4,0,7,7,0,0,1-2.67-2.64,7.9,7.9,0,0,1,0-7.62,7,7,0,0,1,2.67-2.64,7.75,7.75,0,0,1,7.42,0Zm-6.12,3.75a3.92,3.92,0,0,0-.88,2.7,3.9,3.9,0,0,0,.88,2.67,3.37,3.37,0,0,0,4.79,0,3.9,3.9,0,0,0,.88-2.67,4,4,0,0,0-.87-2.7,3,3,0,0,0-2.39-1A3,3,0,0,0,151.8,29.13Z"/><path d="M180.08,24.72V39.08h-4V30.93l-2.67,8.15H170l-2.67-8.15v8.15h-4V24.72h4.91L171.77,34l3.44-9.33Z"/><path d="M199.06,24.72V39.08h-4V30.93l-2.67,8.15H189l-2.67-8.15v8.15h-4V24.72h4.91L190.75,34l3.44-9.33Z"/><path d="M205.19,24.66v8.23a2.91,2.91,0,0,0,.54,1.88,2,2,0,0,0,1.64.66,2,2,0,0,0,1.66-.67,2.84,2.84,0,0,0,.56-1.87V24.66h4v8.23a6.81,6.81,0,0,1-.82,3.46,5.36,5.36,0,0,1-2.25,2.15,7,7,0,0,1-3.22.72,6.78,6.78,0,0,1-3.17-.71A5.06,5.06,0,0,1,202,36.37a7.21,7.21,0,0,1-.77-3.48V24.66Z"/><path d="M229,39.08h-4l-5.29-8v8h-4V24.68h4L225,32.82V24.68h4Z"/><path d="M235.24,24.66V39.08h-4V24.66Z"/><path d="M247.43,25.2a6.08,6.08,0,0,1,2.37,1.93A7.21,7.21,0,0,1,251,30h-4.21a2.8,2.8,0,0,0-1.08-1.33,3,3,0,0,0-1.69-.48,2.64,2.64,0,0,0-2.14,1,4,4,0,0,0-.81,2.64,4.05,4.05,0,0,0,.81,2.65,2.63,2.63,0,0,0,2.14,1,3,3,0,0,0,1.69-.49,2.86,2.86,0,0,0,1.08-1.34H251a6.65,6.65,0,0,1-2.31,4,7,7,0,0,1-4.61,1.5,7.32,7.32,0,0,1-3.74-.93,6.27,6.27,0,0,1-2.46-2.6,8.81,8.81,0,0,1,0-7.62,6.27,6.27,0,0,1,2.46-2.6,7.32,7.32,0,0,1,3.74-.93A7.71,7.71,0,0,1,247.43,25.2Z"/><path d="M261.94,36.67h-5.11l-.79,2.4h-4.21l5.27-14.36h4.62L267,39.08h-4.24Zm-1-3L259.39,29l-1.57,4.68Z"/><path d="M279,24.66v3.2h-3.89V39.08h-4V27.86h-3.85v-3.2Z"/><path d="M284.34,27.86v2.38H289v3h-4.66v2.61h5.27v3.2h-9.29V24.66h9.29v3.2Z"/><path d="M152.06,49.09,148.7,63.51h-5l-2-8.9-2,8.9h-5l-3.36-14.42h4.32l1.59,9.81,2.22-9.81h4.38l2.24,9.81,1.59-9.81Z"/><path d="M157.81,49.09V63.51h-4V49.09Z"/><path d="M170.88,49.09v3.2H167V63.51h-4V52.29h-3.85v-3.2Z"/><path d="M185.09,49.09V63.51h-4V57.69h-4.89v5.82h-4V49.09h4v5.4h4.89v-5.4Z"/><path d="M204.23,49.09l-5.09,9.83v4.58h-4V58.93l-5.09-9.83h4.58l2.55,5.5,2.52-5.5Z"/><path d="M216.07,49.82a6.91,6.91,0,0,1,2.65,2.64,7.94,7.94,0,0,1,0,7.62,7,7,0,0,1-2.66,2.64,7.71,7.71,0,0,1-7.4,0A7,7,0,0,1,206,60.07a7.9,7.9,0,0,1,0-7.62,7,7,0,0,1,2.67-2.64,7.75,7.75,0,0,1,7.42,0ZM210,53.56a4.55,4.55,0,0,0,0,5.37,3.37,3.37,0,0,0,4.79,0,3.9,3.9,0,0,0,.88-2.67,4,4,0,0,0-.87-2.7,3,3,0,0,0-2.39-1A3,3,0,0,0,210,53.56Z"/><path d="M225.39,49.09v8.23a2.91,2.91,0,0,0,.54,1.88,2,2,0,0,0,1.64.66,2,2,0,0,0,1.66-.67,2.84,2.84,0,0,0,.56-1.87V49.09h4v8.23a6.81,6.81,0,0,1-.82,3.46,5.36,5.36,0,0,1-2.25,2.15,7,7,0,0,1-3.22.72,6.78,6.78,0,0,1-3.17-.71,5.06,5.06,0,0,1-2.15-2.14,7.21,7.21,0,0,1-.77-3.48V49.09Z"/><path d="M55.55,14.64,52.64,9.33h-.41v5.31h-4V.22h6.33a6.57,6.57,0,0,1,2.94.6,4.18,4.18,0,0,1,1.82,1.66,4.68,4.68,0,0,1,.61,2.38,4.23,4.23,0,0,1-.83,2.62A4.41,4.41,0,0,1,56.69,9L60,14.64Zm-3.32-8h2q1.67,0,1.67-1.51A1.49,1.49,0,0,0,55.46,4,1.73,1.73,0,0,0,54.2,3.6h-2Z"/><path d="M65.53.22V14.64h-4V.22Z"/><path d="M71,.22l3.26,10.38L77.48.22h4.26L76.81,14.64H71.66L66.73.22Z"/><path d="M86.93,3.42V5.8h4.66v3H86.93v2.61H92.2v3.2H82.92V.22H92.2v3.2Z"/><path d="M101.36,14.64,98.45,9.33H98v5.31H94V.22h6.33a6.57,6.57,0,0,1,2.94.6,4.18,4.18,0,0,1,1.82,1.66,4.68,4.68,0,0,1,.61,2.38,4.23,4.23,0,0,1-.83,2.62A4.41,4.41,0,0,1,102.5,9l3.28,5.6ZM98,6.64h2q1.67,0,1.67-1.51A1.49,1.49,0,0,0,101.27,4,1.73,1.73,0,0,0,100,3.6H98Z"/><path d="M10.37,25.2a6.08,6.08,0,0,1,2.37,1.93A7.21,7.21,0,0,1,14,30H9.77A2.8,2.8,0,0,0,8.69,28.7,3,3,0,0,0,7,28.22a2.64,2.64,0,0,0-2.14,1,4,4,0,0,0-.81,2.64,4.05,4.05,0,0,0,.81,2.65,2.63,2.63,0,0,0,2.14,1A3,3,0,0,0,8.69,35a2.86,2.86,0,0,0,1.08-1.34H14a6.65,6.65,0,0,1-2.31,4,7,7,0,0,1-4.61,1.5,7.32,7.32,0,0,1-3.74-.93,6.27,6.27,0,0,1-2.46-2.6A8.81,8.81,0,0,1,.87,28a6.27,6.27,0,0,1,2.46-2.6,7.32,7.32,0,0,1,3.74-.93A7.71,7.71,0,0,1,10.37,25.2Z"/><path d="M23.11,39.08,20.2,33.76h-.41v5.31h-4V24.66h6.33a6.57,6.57,0,0,1,2.94.6,4.18,4.18,0,0,1,1.82,1.66,4.68,4.68,0,0,1,.61,2.38,4.23,4.23,0,0,1-.83,2.62,4.41,4.41,0,0,1-2.4,1.56l3.28,5.6Zm-3.32-8h2q1.67,0,1.67-1.51A1.49,1.49,0,0,0,23,28.45,1.73,1.73,0,0,0,21.77,28h-2Z"/><path d="M39.74,25.38A6.91,6.91,0,0,1,42.38,28a7.94,7.94,0,0,1,0,7.62,7,7,0,0,1-2.66,2.64,7.71,7.71,0,0,1-7.4,0,7,7,0,0,1-2.67-2.64,7.9,7.9,0,0,1,0-7.62,7,7,0,0,1,2.67-2.64,7.75,7.75,0,0,1,7.42,0Zm-6.12,3.75a3.92,3.92,0,0,0-.88,2.7,3.9,3.9,0,0,0,.88,2.67,3.37,3.37,0,0,0,4.79,0,3.9,3.9,0,0,0,.88-2.67,4,4,0,0,0-.87-2.7,3,3,0,0,0-2.39-1A3,3,0,0,0,33.62,29.13Z"/><path d="M55.28,37.1a4.2,4.2,0,0,1-1.79,1.55,6.46,6.46,0,0,1-2.83.57A6.73,6.73,0,0,1,46.54,38a4.38,4.38,0,0,1-1.76-3.42H49a1.62,1.62,0,0,0,.47,1.12,1.44,1.44,0,0,0,1,.37,1.19,1.19,0,0,0,.82-.26,1,1,0,0,0,.29-.75,1.12,1.12,0,0,0-.59-1,10,10,0,0,0-1.87-.78,18.07,18.07,0,0,1-2.25-.92A4.21,4.21,0,0,1,45.38,31a4.32,4.32,0,0,1,.05-4.61,4.29,4.29,0,0,1,1.89-1.47,7.06,7.06,0,0,1,2.73-.5,6.2,6.2,0,0,1,4,1.17,4.36,4.36,0,0,1,1.62,3.29h-4.3a1.62,1.62,0,0,0-.42-1,1.22,1.22,0,0,0-.89-.33,1,1,0,0,0-.73.24,1,1,0,0,0-.26.73,1.07,1.07,0,0,0,.58,1,10.4,10.4,0,0,0,1.82.77,18.24,18.24,0,0,1,2.26,1,4.47,4.47,0,0,1,1.55,1.36,3.85,3.85,0,0,1,.65,2.32A4,4,0,0,1,55.28,37.1Z"/><path d="M67.79,37.1A4.2,4.2,0,0,1,66,38.65a6.46,6.46,0,0,1-2.83.57A6.73,6.73,0,0,1,59,38a4.38,4.38,0,0,1-1.76-3.42h4.26A1.62,1.62,0,0,0,62,35.72a1.44,1.44,0,0,0,1,.37,1.19,1.19,0,0,0,.82-.26,1,1,0,0,0,.29-.75,1.12,1.12,0,0,0-.59-1,10,10,0,0,0-1.87-.78,18.07,18.07,0,0,1-2.25-.92A4.21,4.21,0,0,1,57.88,31a4.32,4.32,0,0,1,.05-4.61,4.29,4.29,0,0,1,1.89-1.47,7.06,7.06,0,0,1,2.73-.5,6.2,6.2,0,0,1,4,1.17,4.36,4.36,0,0,1,1.62,3.29h-4.3a1.62,1.62,0,0,0-.42-1,1.22,1.22,0,0,0-.89-.33,1,1,0,0,0-.73.24,1,1,0,0,0-.26.73,1.07,1.07,0,0,0,.58,1,10.4,10.4,0,0,0,1.82.77,18.24,18.24,0,0,1,2.26,1,4.47,4.47,0,0,1,1.55,1.36,3.85,3.85,0,0,1,.65,2.32A4,4,0,0,1,67.79,37.1Z"/><path d="M74.16,24.66V39.08h-4V24.66Z"/><path d="M89.7,39.08h-4l-5.29-8v8h-4V24.68h4l5.29,8.15V24.68h4Z"/><path d="M103.28,25.88a5.46,5.46,0,0,1,2.14,3.62H101.2a2.36,2.36,0,0,0-1-.94,3,3,0,0,0-1.49-.35,2.94,2.94,0,0,0-2.33,1,3.86,3.86,0,0,0-.87,2.64,4,4,0,0,0,.93,2.84,3.59,3.59,0,0,0,2.72,1,3.16,3.16,0,0,0,3-1.93h-4V30.87h7.31v4a7.54,7.54,0,0,1-2.47,3.06,7,7,0,0,1-4.29,1.27,7.73,7.73,0,0,1-3.85-.93,6.31,6.31,0,0,1-2.54-2.6,8.61,8.61,0,0,1,0-7.61,6.36,6.36,0,0,1,2.51-2.59,7.61,7.61,0,0,1,3.83-.93A7.31,7.31,0,0,1,103.28,25.88Z"/><path d="M120.56,10.39v4.94h-5.12V10.39Zm0,10.28v4.94h-5.12V20.66Z"/></g></g></svg>