<svg xmlns="http://www.w3.org/2000/svg" viewBox="0 0 100 100"><defs><style>.cls-1{fill:#ffcb05;}.cls-2{fill:#ce181e;}</style></defs><title>y</title><g id="Layer_2" data-name="Layer 2"><g id="background"><rect class="cls-1" width="100" height="100"/><polygon class="cls-2" points="0 22.22 0 36.36 36.36 0 22.22 0 0 22.22"/><polygon class="cls-2" points="92.93 0 78.79 0 0 78.79 0 92.93 92.93 0"/><polygon class="cls-2" points="64.64 0 50.5 0 0 50.5 0 64.64 64.64 0"/><polygon class="cls-2" points="100 49.5 100 35.35 35.36 100 49.5 100 100 49.5"/><polygon class="cls-2" points="100 21.21 100 7.07 7.07 100 21.21 100 100 21.21"/><polygon class="cls-2" points="100 77.78 100 63.64 63.64 100 77.78 100 100 77.78"/></g></g></svg>